<?xml version="1.0" encoding="utf-8"?>
<!-- Generator: Adobe Illustrator 25.2.3, SVG Export Plug-In . SVG Version: 6.00 Build 0)  -->
<svg version="1.1" id="Layer_1" xmlns="http://www.w3.org/2000/svg" xmlns:xlink="http://www.w3.org/1999/xlink" x="0px" y="0px"
	 viewBox="0 0 80 80" style="enable-background:new 0 0 80 80;" xml:space="preserve">
<style type="text/css">
	.st0{fill:#FFFFFF;}
</style>
<g>
	<path class="st0" d="M40,0c22.1,0,40,17.9,40,40c0,22.1-17.9,40-40,40C17.9,80,0,62.1,0,40C0,17.9,17.9,0,40,0z M44,40
		c0-9.8-8-17.8-17.7-17.8c-9.8,0-17.7,8.1-17.6,17.9c0,9.8,8,17.7,17.7,17.7C36.1,57.8,44.1,49.7,44,40z M45.7,40
		c0,2.6,0.3,5.2,1,7.7c0.8,2.8,1.9,5.5,4.2,7.5c2.3,2,5.1,2,7.4,0c1.5-1.3,2.5-3,3.2-4.8c2.4-6.2,2.5-12.5,0.7-18.9
		c-0.7-2.6-1.9-4.9-3.9-6.7c-2.3-2-5.1-2.1-7.3,0c-0.8,0.8-1.6,1.7-2.2,2.6C46.5,31.3,45.8,35.6,45.7,40z M71.4,40.3
		c0-3.9-0.2-7.5-1-11c-0.3-1.2-0.7-2.5-1.3-3.6c-0.5-1-1.2-0.9-1.8,0c-0.4,0.6-0.7,1.3-0.8,2c-0.5,2.4-0.9,4.9-1.2,7.3
		c-0.4,5.2-0.3,10.5,0.7,15.7c0.3,1.3,0.7,2.5,1.3,3.7c0.5,1,1.2,0.9,1.8,0c0.4-0.7,0.7-1.5,0.9-2.3C71.1,48.1,71.3,44.1,71.4,40.3z
		"/>
</g>
</svg>
