<?xml version="1.0" encoding="utf-8"?>
<!-- Generator: Adobe Illustrator 25.2.3, SVG Export Plug-In . SVG Version: 6.00 Build 0)  -->
<svg version="1.1" id="Layer_1" xmlns="http://www.w3.org/2000/svg" xmlns:xlink="http://www.w3.org/1999/xlink" x="0px" y="0px"
	 viewBox="0 0 80 80" style="enable-background:new 0 0 80 80;" xml:space="preserve">
<style type="text/css">
	.st0{fill:#FFFFFF;}
</style>
<g>
	<path class="st0" d="M40,0c22.1,0,40,17.9,40,40c0,22.1-18,40-40,40C17.9,80,0,62,0,39.9C0,17.9,18,0,40,0z M39.5,52.7
		c3.2,2.4,6.4,4.7,9.5,7c2.1,1.5,3.5,1,4.1-1.5c2.2-10.2,4.4-20.5,6.5-30.7c0.1-0.5,0.1-1.1,0.1-1.6c-0.1-1.4-1.1-2-2.4-1.7
		c-0.3,0.1-0.6,0.2-0.9,0.3C47.2,28,38.1,31.5,29,35c-3.7,1.4-7.4,2.9-11.1,4.3c-0.7,0.3-1.6,0.7-1.6,1.6c0,1,1,1.2,1.7,1.4
		c2.9,0.9,5.9,1.8,8.8,2.8c0.6,0.2,1.1,0.1,1.6-0.2c3.4-2.2,6.8-4.3,10.2-6.4c3.9-2.5,7.8-4.9,11.7-7.4c0.5-0.3,1-0.7,1.9-0.3
		c-0.3,0.3-0.5,0.6-0.7,0.8c-5.4,4.9-10.8,9.8-16.3,14.7c-1.3,1.2-2.3,2.3-2.1,4.2c0,0.1,0,0.3,0,0.4c-0.2,2.4-0.3,4.8-0.5,7.3
		c0.8,0.1,1.3-0.3,1.8-0.7C36.1,55.9,37.8,54.3,39.5,52.7z"/>
</g>
</svg>
