<?xml version="1.0" encoding="utf-8"?>
<!-- Generator: Adobe Illustrator 25.2.3, SVG Export Plug-In . SVG Version: 6.00 Build 0)  -->
<svg version="1.1" id="Layer_1" xmlns="http://www.w3.org/2000/svg" xmlns:xlink="http://www.w3.org/1999/xlink" x="0px" y="0px"
	 viewBox="0 0 98.4 80" style="enable-background:new 0 0 98.4 80;" xml:space="preserve">
<style type="text/css">
	.st0{fill:#FFFFFF;}
</style>
<path class="st0" d="M31,80c37.1,0,57.5-30.8,57.5-57.5c0-0.9,0-1.7-0.1-2.6c3.9-2.9,7.4-6.4,10.1-10.5c-3.6,1.6-7.5,2.7-11.6,3.2
	c4.2-2.5,7.4-6.5,8.9-11.2c-3.9,2.3-8.2,4-12.8,4.9C79.2,2.5,74,0,68.2,0C57,0,48,9,48,20.2c0,1.6,0.2,3.1,0.5,4.6
	C31.7,24,16.8,15.9,6.8,3.7c-1.7,3-2.7,6.5-2.7,10.2c0,7,3.6,13.2,9,16.8c-3.3-0.1-6.4-1-9.1-2.5c0,0.1,0,0.2,0,0.3
	c0,9.8,7,17.9,16.2,19.8c-1.7,0.5-3.5,0.7-5.3,0.7c-1.3,0-2.6-0.1-3.8-0.4c2.6,8,10,13.9,18.9,14C23,68,14.3,71.2,4.8,71.2
	c-1.6,0-3.2-0.1-4.8-0.3C8.9,76.7,19.6,80,31,80"/>
</svg>
