<?xml version="1.0" encoding="utf-8"?>
<!-- Generator: Adobe Illustrator 25.2.3, SVG Export Plug-In . SVG Version: 6.00 Build 0)  -->
<svg version="1.1" id="Layer_1" xmlns="http://www.w3.org/2000/svg" xmlns:xlink="http://www.w3.org/1999/xlink" x="0px" y="0px"
	 viewBox="0 0 114.3 80" style="enable-background:new 0 0 114.3 80;" xml:space="preserve">
<style type="text/css">
	.st0{fill:#FFFFFF;}
</style>
<g>
	<path class="st0" d="M111.9,12.5c-1.3-4.9-5.2-8.8-10.1-10.1C92.9,0,57.1,0,57.1,0S21.4,0,12.4,2.4C7.6,3.7,3.7,7.6,2.4,12.5
		C0,21.5,0,40,0,40s0,18.6,2.4,27.5c1.3,4.9,5.2,8.8,10.1,10.1c9,2.4,44.7,2.4,44.7,2.4s35.8,0,44.7-2.4c4.9-1.3,8.8-5.2,10.1-10.1
		c2.4-8.9,2.4-27.5,2.4-27.5S114.4,21.5,111.9,12.5z M45.7,57.1V22.9L75.5,40L45.7,57.1z"/>
</g>
</svg>
